<?xml version="1.0" encoding="UTF-8"?>
<svg version="1.1" xmlns="http://www.w3.org/2000/svg" width="512" height="512">
<path d="M0 0 C1.03125 0.7425 2.0625 1.485 3.125 2.25 C14.70362771 13.32520911 21.95854636 28.28950226 22.328125 44.359375 C22.31769493 46.48971697 22.29161096 48.62003891 22.25 50.75 C22.24484375 51.82121094 22.2396875 52.89242187 22.234375 53.99609375 C22.18910536 58.59662072 22.06081195 62.97618601 21.22265625 67.50390625 C20.62650441 70.99946482 20.62650441 70.99946482 22.66796875 73.29296875 C23.49941406 73.91816406 24.33085937 74.54335937 25.1875 75.1875 C62.30795439 105.53528096 85.78317476 155.0653429 95.25 201.1875 C95.40122314 201.92186279 95.55244629 202.65622559 95.70825195 203.4128418 C98.60531566 218.52304928 99.40863176 233.52312067 99.375 248.875 C99.37418427 250.28514877 99.37418427 250.28514877 99.37335205 251.7237854 C99.33165199 267.4702271 98.29308727 282.55655625 95 298 C94.68651611 299.51400391 94.68651611 299.51400391 94.36669922 301.05859375 C85.01127684 345.06762187 63.05664471 384.64260621 32 417 C31.46503906 417.56219238 30.93007813 418.12438477 30.37890625 418.70361328 C22.15183371 427.30831415 13.57627263 434.93677499 4 442 C3.36787598 442.47646973 2.73575195 442.95293945 2.08447266 443.44384766 C-47.80638436 480.95158881 -112.52100889 496.56486833 -174.19604492 488.40625 C-221.57263793 481.45188772 -267.62695523 461.61743907 -302.515625 428.3671875 C-304.60037017 426.38077937 -306.72421785 424.5258046 -308.9375 422.6875 C-328.39234911 405.74034454 -342.89281706 383.54364146 -355 361 C-355.50611816 360.07960938 -355.50611816 360.07960938 -356.02246094 359.140625 C-369.77310008 334.02726259 -377.56683804 305.32824237 -381 277 C-381.10586426 276.23510254 -381.21172852 275.47020508 -381.32080078 274.68212891 C-382.02072245 268.76750628 -381.93617144 263.05443826 -381.640625 257.125 C-380.66075054 235.59777732 -382.05672944 221.0996292 -393.22509766 202.17089844 C-396.27104695 196.72924927 -398.62216451 191.00760514 -401 185.25 C-401.45407227 184.16348145 -401.90814453 183.07696289 -402.37597656 181.95751953 C-411.53269048 159.82480512 -418.61209434 134.5129652 -410.25390625 110.89453125 C-403.03496556 94.23024761 -391.3043516 81.59593806 -374.50390625 74.31640625 C-365.6876542 71.00416886 -356.4497635 68.39445474 -347 68 C-345.76443359 67.94005859 -345.76443359 67.94005859 -344.50390625 67.87890625 C-333.39393837 67.60478513 -322.88620436 69.27562215 -312.5234375 73.29296875 C-309.70829688 74.08173106 -308.64746035 74.19188454 -306 73 C-303.66364148 71.10020341 -303.66364148 71.10020341 -301.25 68.6875 C-268.19545404 37.65589676 -223.53013487 18.00152519 -179 11 C-177.85096191 10.81526123 -176.70192383 10.63052246 -175.51806641 10.44018555 C-164.98680814 8.92473788 -154.59989358 8.72348734 -143.97070312 8.79418945 C-141.10798313 8.81260949 -138.24558606 8.81469714 -135.3828125 8.81445312 C-133.52864308 8.819365 -131.67447581 8.82519188 -129.8203125 8.83203125 C-128.56216232 8.83370049 -128.56216232 8.83370049 -127.27859497 8.83540344 C-112.08947747 8.95526127 -112.08947747 8.95526127 -108 11 C-107.61134766 10.12794922 -107.61134766 10.12794922 -107.21484375 9.23828125 C-100.77797917 -2.62127954 -86.25164671 -9.18620348 -74 -13 C-48.49568948 -20.17578906 -21.12795027 -16.45466759 0 0 Z " fill="#010201" transform="translate(413,19)"/>
<path d="M0 0 C2.82765858 1.41382929 2.98025669 3.03991337 4.1015625 5.96875 C4.50511963 7.00676758 4.90867676 8.04478516 5.32446289 9.11425781 C5.75364014 10.23155273 6.18281738 11.34884766 6.625 12.5 C19.29294675 46.35077207 19.29294675 46.35077207 46 69 C56.12922436 72.18464458 65.79494509 69.59127433 75 65 C78.53230675 62.92562595 81.87766558 60.64676135 85.2109375 58.26757812 C88.81554731 55.71365698 92.47668878 53.24087539 96.125 50.75 C96.92558838 50.20190674 97.72617676 49.65381348 98.55102539 49.08911133 C104.3751706 45.10258335 110.20757318 41.12870352 116.0625 37.1875 C116.83029785 36.66575195 117.5980957 36.14400391 118.38916016 35.60644531 C119.09733887 35.13174805 119.80551758 34.65705078 120.53515625 34.16796875 C121.157854 33.74797607 121.78055176 33.3279834 122.42211914 32.89526367 C124 32 124 32 126 32 C129.07036164 41.21108491 127.24138861 51.27183506 123.90625 60.07421875 C120.97989346 69.52180947 122.88144837 79.23147073 127 88 C129.77123606 92.8330357 132.81880933 97.42932375 136 102 C136.61560791 102.88582764 136.61560791 102.88582764 137.24365234 103.78955078 C137.65180176 104.37591309 138.05995117 104.96227539 138.48046875 105.56640625 C139.08242065 106.4318103 139.08242065 106.4318103 139.6965332 107.31469727 C140.80738225 108.90330115 141.93064675 110.4832026 143.0546875 112.0625 C147.81206721 119.24633442 148.83323048 124.47992493 148 133 C145.24475562 141.75195272 136.53581547 146.09767247 128.875 150.125 C120.4469218 154.3505875 120.4469218 154.3505875 113.6875 160.75 C112.09738164 165.95402373 112.34570914 169.61592319 114.625 174.4375 C119.07176108 179.992766 125.94649112 183.44235697 132 187 C132.76054687 187.45890625 133.52109375 187.9178125 134.3046875 188.390625 C148.05433395 196.03565663 164.53701309 193.43946457 179.1875 190.5 C197.17573895 186.9504564 211.79703291 186.45457283 229 193 C255.31422287 202.46581073 292.80590132 213.97131518 320 202 C322.00739279 200.67782302 324.00874564 199.34635948 326 198 C326.66 198 327.32 198 328 198 C328.68774405 196.67741528 329.34711373 195.34013497 330 194 C330.53625 193.01 331.0725 192.02 331.625 191 C334.0868535 185.07378564 334.05418997 178.4477614 332.19140625 172.35546875 C326.02385074 158.80391944 313.29377844 150.0306122 302 141 C285.05630921 127.34286449 270.97185671 114.92813396 263.0625 94.25 C262.74337646 93.43354004 262.42425293 92.61708008 262.09545898 91.77587891 C261.80743408 90.98874512 261.51940918 90.20161133 261.22265625 89.390625 C260.83219116 88.3392334 260.83219116 88.3392334 260.43383789 87.26660156 C259.38623574 81.79336671 261.57856844 77.35442732 263.9921875 72.546875 C264.61650954 71.28656669 265.24077474 70.02623022 265.86499023 68.76586914 C266.19328827 68.11039093 266.5215863 67.45491272 266.85983276 66.77957153 C274.20383266 52.09709106 280.80656943 37.20633176 287 22 C290 22 290 22 292.3828125 24.01953125 C298.64268235 30.39532462 304.57468622 36.88510627 310 44 C310.49258301 44.64324219 310.98516602 45.28648437 311.49267578 45.94921875 C319.72236699 56.78527094 326.78942869 67.89815351 333 80 C333.3810791 80.72703125 333.7621582 81.4540625 334.15478516 82.203125 C350.28354302 113.20992324 358.45280368 148.0080307 358.375 182.875 C358.37567978 184.07274048 358.37567978 184.07274048 358.37637329 185.29467773 C358.35232478 199.8308262 356.94774212 213.73877949 354 228 C353.85626953 228.71526855 353.71253906 229.43053711 353.56445312 230.16748047 C352.82037751 233.81104479 351.94956137 237.40523196 351 241 C350.76539063 242.00160156 350.53078125 243.00320313 350.2890625 244.03515625 C350.04929687 245.01355469 349.80953125 245.99195313 349.5625 247 C349.25505859 248.2684375 349.25505859 248.2684375 348.94140625 249.5625 C346.66573667 255.45469012 342.21941333 258.56716005 337.125 261.875 C336.46081055 262.30989746 335.79662109 262.74479492 335.11230469 263.19287109 C326.50519733 268.72601153 317.46716971 273.02148898 308.01293945 276.8737793 C292.88551818 283.05466548 280.5329458 290.36220924 269 302 C268.00226563 302.94746094 268.00226563 302.94746094 266.984375 303.9140625 C262.95691354 308.03223255 260.35446581 312.72546688 257.75 317.8125 C257.42032227 318.4521167 257.09064453 319.0917334 256.75097656 319.75073242 C251.93453333 329.62641298 250.53798097 338.95441364 250.75 349.875 C250.76095703 351.01308105 250.77191406 352.15116211 250.78320312 353.32373047 C250.88312552 360.91022934 251.14485144 368.45636804 252 376 C244.24658426 381.14976407 236.27107537 385.48595728 227.875 389.5 C226.95050049 389.94520996 226.02600098 390.39041992 225.07348633 390.84912109 C224.20103271 391.25984863 223.3285791 391.67057617 222.4296875 392.09375 C221.64835449 392.46177734 220.86702148 392.82980469 220.06201172 393.20898438 C218 394 218 394 215 394 C213.4921875 392.27734375 213.4921875 392.27734375 211.875 389.9375 C203.3209147 378.48403 191.63224462 373.94354908 178.421875 369.8203125 C168.71792877 366.60550823 162.9157787 361.86285984 158 353 C150.53799276 340.10657598 143.39760702 328.47648031 128.3671875 324.26171875 C126.25876454 323.77592224 124.13039477 323.37797327 122 323 C123.36157016 318.69585121 124.98959748 314.63322047 126.86328125 310.52734375 C127.42645429 309.28451518 127.98960457 308.04167629 128.55273438 306.79882812 C129.42687125 304.87913115 130.30222603 302.9599973 131.1784668 301.04125977 C142.23805331 276.78689787 152.56012104 249.65868879 143 223 C136.27996698 205.96060005 125.0115812 194.76209164 108.25 187.3125 C85.81385159 178.61453232 63.33639876 178.3969402 41 188 C37.49053686 189.77930764 34.24128268 191.77299625 31 194 C30.24203125 194.50015625 29.4840625 195.0003125 28.703125 195.515625 C18.41706431 202.82227501 11.98419754 213.17541374 8 225 C7.43539062 226.47339844 7.43539062 226.47339844 6.859375 227.9765625 C5.8670976 231.50941634 5.95395703 234.81698347 6.04296875 238.47265625 C6.46300196 255.86663424 3.96635816 266.62877819 -6.12548828 281.15966797 C-9.52231898 286.30667609 -12.30825992 291.7703803 -15.125 297.25 C-15.99185425 298.92449219 -15.99185425 298.92449219 -16.8762207 300.6328125 C-22.9095501 312.47680157 -28.04164698 324.67174532 -33 337 C-36 337 -36 337 -38.27734375 334.75390625 C-39.17532757 333.69959602 -40.06120099 332.63490153 -40.9375 331.5625 C-41.4126001 330.99063965 -41.8877002 330.4187793 -42.37719727 329.82958984 C-48.3314851 322.54080392 -53.8244681 314.85892196 -59 307 C-59.41910645 306.36545898 -59.83821289 305.73091797 -60.27001953 305.07714844 C-63.08024296 300.55431347 -63.08024296 300.55431347 -62.7109375 298.00317383 C-61.54543796 294.71920275 -59.69434326 291.80671521 -57.9375 288.8125 C-51.82630125 278.11214605 -46.62648733 267.21757838 -42.11328125 255.74609375 C-41.85749802 255.09763489 -41.60171478 254.44917603 -41.33818054 253.78106689 C-40.06209353 250.53876495 -38.80072056 247.2918978 -37.56323242 244.03466797 C-32.03332165 229.79826892 -24.7548507 217.91416883 -14.60986328 206.42578125 C-8.70086563 199.72268118 -3.40809375 193.38007469 0 185 C0.36351562 184.18789063 0.72703125 183.37578125 1.1015625 182.5390625 C4.09490816 174.07960739 1.77857782 164.06992663 -1.84667969 156.15039062 C-3.50661644 152.72222359 -5.24581697 149.33597461 -6.98828125 145.94921875 C-8.77640289 142.46504219 -10.47437811 138.95605917 -12.0625 135.375 C-12.46597656 134.47523438 -12.86945313 133.57546875 -13.28515625 132.6484375 C-14.98762495 126.34093051 -11.77317983 120.78935172 -9.25 115.125 C-0.18294229 94.18756272 6.90292588 67.97248311 -1.74609375 45.671875 C-2.15988281 44.79015625 -2.57367188 43.9084375 -3 43 C-3.63615234 41.58460937 -3.63615234 41.58460937 -4.28515625 40.140625 C-8.6207735 31.39692893 -15.14190077 24.81155105 -22 18 C-14.99957377 11.39224758 -7.92389989 5.48695582 0 0 Z " fill="#3C99E1" transform="translate(140,84)"/>
<path d="M0 0 C2.29641603 0.0185574 4.5924318 0.02050651 6.88891602 0.02026367 C13.7495066 0.0428376 20.40642849 0.25791697 27.20336914 1.20581055 C26.99115723 1.91616455 26.77894531 2.62651855 26.56030273 3.35839844 C24.37595907 11.24033447 23.74453227 18.48784617 23.82836914 26.64331055 C23.8109668 28.33037109 23.8109668 28.33037109 23.79321289 30.05151367 C23.82104748 38.12818265 25.07894234 45.42677809 27.20336914 53.20581055 C27.52176758 54.39432617 27.84016602 55.5828418 28.16821289 56.80737305 C36.87124495 83.8601715 50.82279023 109.68416959 63.20336914 135.20581055 C63.51417419 135.84736084 63.82497925 136.48891113 64.14520264 137.14990234 C65.88214197 140.72710514 67.65259015 144.28535364 69.45336914 147.83081055 C69.84596924 148.62793457 70.23856934 149.42505859 70.64306641 150.24633789 C74.29155497 157.25224967 79.48984895 162.28603579 87.10961914 164.7331543 C94.6856307 166.44341064 101.53568564 165.19997844 108.20336914 161.20581055 C114.04043268 156.18252006 117.61657267 150.40459284 120.20336914 143.20581055 C120.86336914 143.20581055 121.52336914 143.20581055 122.20336914 143.20581055 C122.4830957 143.94444336 122.76282227 144.68307617 123.05102539 145.4440918 C130.24427402 163.64694282 141.99451541 176.29411433 157.20336914 188.20581055 C188.82278469 213.78424532 188.82278469 213.78424532 190.73852539 221.30737305 C191.00544036 224.96205495 190.32790223 227.0250367 188.26586914 230.01831055 C181.74119323 234.67879334 174.76115742 235.71921879 166.89086914 235.58081055 C166.02405518 235.56993408 165.15724121 235.55905762 164.26416016 235.54785156 C141.26350565 234.99699992 117.76456698 229.16410147 96.53540039 220.4675293 C89.45875073 217.78786008 83.15149073 216.81862729 75.64086914 216.83081055 C74.74625977 216.83024658 73.85165039 216.82968262 72.92993164 216.82910156 C61.30657668 217.01297725 49.97817054 219.3438303 38.64111328 221.74951172 C24.57876187 224.3817135 13.23753933 221.39639915 1.45336914 213.51831055 C-1.03100586 211.7565918 -1.03100586 211.7565918 -2.79663086 210.20581055 C-2.79663086 209.54581055 -2.79663086 208.88581055 -2.79663086 208.20581055 C-2.23790283 207.91448242 -1.6791748 207.6231543 -1.10351562 207.32299805 C19.00272022 197.48276587 19.00272022 197.48276587 30.77758789 179.4128418 C33.04211038 167.67472061 31.16863482 156.97461558 24.51196289 147.13549805 C21.94255719 143.44715761 19.29511179 139.81808204 16.6394043 136.19165039 C14.7034132 133.51443999 12.87523071 130.79115166 11.07836914 128.01831055 C10.30106445 126.82141602 10.30106445 126.82141602 9.50805664 125.6003418 C6.22422392 119.57342725 5.39469749 113.94787533 6.20336914 107.20581055 C6.82892197 105.23395925 7.49921334 103.27597853 8.20336914 101.33081055 C11.77360081 90.58186305 12.50415695 76.35047966 7.35180664 65.9909668 C5.37543284 62.91884834 3.46757916 60.83791555 0.20336914 59.20581055 C-11.81834816 58.25409126 -24.50902596 70.70476291 -33.95678711 77.19799805 C-39.67450716 81.12731412 -45.41219786 85.02540309 -51.17163086 88.89331055 C-52.02039795 89.46895752 -52.86916504 90.04460449 -53.74365234 90.63769531 C-68.90122397 100.7925588 -68.90122397 100.7925588 -77.79663086 99.20581055 C-82.71604796 97.36226145 -86.34428788 94.0896964 -89.79663086 90.20581055 C-90.31870117 89.62573242 -90.84077148 89.0456543 -91.37866211 88.44799805 C-100.7488799 77.32218641 -105.76215257 63.17214644 -111.29663086 49.89331055 C-111.57010345 49.24003784 -111.84357605 48.58676514 -112.12533569 47.91369629 C-112.90765218 46.03849264 -113.68044947 44.15932639 -114.45288086 42.2800293 C-114.90469727 41.18263428 -115.35651367 40.08523926 -115.82202148 38.95458984 C-116.79663086 36.20581055 -116.79663086 36.20581055 -116.79663086 33.20581055 C-104.13834058 25.92301379 -91.4552814 19.40031664 -77.79663086 14.20581055 C-77.08925781 13.93430176 -76.38188477 13.66279297 -75.65307617 13.38305664 C-66.04407068 9.76347081 -56.24130285 7.22801742 -46.23413086 4.95581055 C-45.15905273 4.70943848 -44.08397461 4.46306641 -42.97631836 4.20922852 C-28.69056578 1.09979952 -14.59723642 -0.12186785 0 0 Z " fill="#8FDA59" transform="translate(269.796630859375,41.794189453125)"/>
<path d="M0 0 C8.16001082 6.13325489 13.8147919 13.30839769 17.6875 22.75 C18.05359375 23.60464844 18.4196875 24.45929688 18.796875 25.33984375 C28.57665043 62.78608915 0.83464763 104.0491711 -14.75 136.3125 C-15.08484406 137.00719391 -15.41968811 137.70188782 -15.76467896 138.41763306 C-27.05629032 161.81452471 -27.05629032 161.81452471 -31.25 164.9375 C-34.92218573 165.91175336 -37.53027474 166.29031789 -41.3125 165.75 C-47.71375747 161.67327069 -50.17913629 155.89316003 -53.375 149.1875 C-53.93155273 148.04724365 -54.48810547 146.9069873 -55.06152344 145.73217773 C-60.28392741 134.97141583 -65.31720063 124.1194353 -70.30859375 113.25 C-72.488955 108.50786919 -74.72825237 103.80005816 -77.01220703 99.10717773 C-87.54583632 77.3859005 -99.87907204 50.44962988 -93.0546875 25.81640625 C-88.28418732 12.53432943 -79.00153734 2.42255777 -66.6875 -4.375 C-45.65065116 -14.05927471 -19.53003579 -12.91019237 0 0 Z " fill="#F24655" transform="translate(108.3125,112.25)"/>
<path d="M0 0 C10.96618409 9.32207853 17.54159593 19.99398595 18.7421875 34.50390625 C20.44750642 68.10575252 -0.45915895 101.37144079 -14.62921143 130.72662354 C-15.65600989 132.85889186 -16.67668404 134.99395732 -17.69482422 137.13037109 C-19.43084871 140.77163027 -21.19115568 144.40046479 -22.95703125 148.02734375 C-23.70690308 149.60394775 -23.70690308 149.60394775 -24.47192383 151.21240234 C-27.19255617 156.72201766 -29.45719223 160.64251572 -34.70703125 163.96484375 C-37.0859375 164.59375 -37.0859375 164.59375 -39.26953125 164.52734375 C-39.99269531 164.52863281 -40.71585938 164.52992188 -41.4609375 164.53125 C-45.12851443 163.60638277 -47.69828464 161.48586209 -49.79347229 158.32667542 C-50.88967557 156.32593988 -51.90236894 154.30042603 -52.89453125 152.24609375 C-53.46380089 151.10329453 -53.46380089 151.10329453 -54.04457092 149.93740845 C-55.27788053 147.45250239 -56.49298915 144.95921279 -57.70703125 142.46484375 C-58.55856368 140.73521893 -59.41070095 139.00589177 -60.26342773 137.27685547 C-95.81329762 64.97602954 -95.81329762 64.97602954 -95.95703125 39.71484375 C-95.98796875 38.37873047 -95.98796875 38.37873047 -96.01953125 37.015625 C-96.09063764 24.7675496 -91.68922389 14.09413725 -83.8125 4.70703125 C-62.10740765 -16.45854638 -24.01057029 -18.05123683 0 0 Z " fill="#F24655" transform="translate(254.70703125,290.03515625)"/>
<path d="M0 0 C9.44857652 7.7783736 16.48118781 18.99870675 17.79345703 31.31738281 C19.38877426 54.43197911 11.03259257 73.60241078 1.5703125 94.22265625 C1.11277588 95.22220337 1.11277588 95.22220337 0.64599609 96.24194336 C-3.92439364 106.21575539 -8.61798986 116.12760822 -13.37200928 126.01501465 C-14.45190656 128.26903304 -15.52309298 130.52701867 -16.59228516 132.78613281 C-18.36274108 136.5238228 -20.15491818 140.25034628 -21.96325684 143.96984863 C-22.64194236 145.37335645 -23.31390171 146.78013944 -23.9786377 148.19030762 C-29.75797252 160.42150575 -29.75797252 160.42150575 -34.171875 163.1015625 C-38.21719636 164.4936575 -40.3399768 164.48674865 -44.4296875 163.22265625 C-49.62804952 159.57648726 -52.03209628 155.95481843 -54.6796875 150.2578125 C-55.05514206 149.4804071 -55.43059662 148.70300171 -55.81742859 147.90203857 C-57.03590413 145.36968257 -58.23313346 142.82793407 -59.4296875 140.28515625 C-60.27212463 138.52056685 -61.11564119 136.75649241 -61.96020508 134.99291992 C-64.07316955 130.57078336 -66.16785099 126.14026367 -68.25689697 121.70678711 C-69.67745868 118.69784298 -71.10968967 115.69456237 -72.54278564 112.6915741 C-96.53078538 62.38067867 -96.53078538 62.38067867 -96.7421875 39.53515625 C-96.77119141 38.50970703 -96.80019531 37.48425781 -96.83007812 36.42773438 C-96.93903172 23.1605388 -91.70365667 12.7166665 -82.8046875 3.09765625 C-61.13962973 -17.65606065 -23.4855342 -17.17993257 0 0 Z " fill="#F24655" transform="translate(403.4296875,29.77734375)"/>
<path d="M0 0 C2.14692683 2.14692683 2.78059517 3.59594848 3.890625 6.390625 C4.26243896 7.31117676 4.63425293 8.23172852 5.01733398 9.18017578 C5.42411377 10.19321777 5.83089355 11.20625977 6.25 12.25 C15.23270307 34.14461645 25.60207399 55.37656737 36.125 76.5625 C36.53845673 77.39904114 36.95191345 78.23558228 37.37789917 79.09747314 C38.56046909 81.48629207 39.75148949 83.87069492 40.9453125 86.25390625 C41.29583176 86.9640538 41.64635101 87.67420135 42.00749207 88.40586853 C45.51081883 95.34851731 49.02721528 99.51360764 56 103 C62.12810324 104.95994773 69.59297299 105.1539128 75.67578125 103.09375 C83.66486718 98.90451503 87.59619701 92.41311999 91.42578125 84.5390625 C92.01446236 83.3532106 92.01446236 83.3532106 92.61503601 82.1434021 C93.8551502 79.64095284 95.08396412 77.13315033 96.3125 74.625 C97.15615775 72.91760127 98.00055158 71.21056605 98.84570312 69.50390625 C100.90567099 65.34009254 102.95552944 61.17144342 105 57 C106.41448576 57.13898695 107.82845242 57.28326188 109.2421875 57.4296875 C110.02964355 57.50944824 110.81709961 57.58920898 111.62841797 57.67138672 C117.9258791 58.54398119 122.72309196 60.79103878 127.08203125 65.44921875 C130.74201481 70.31677326 133.62932268 75.67808496 136.65625 80.953125 C144.43088749 94.4661854 154.57985579 100.62498219 169.4375 104.875 C178.47813342 107.57874084 185.81194858 111.83488783 192 119 C192 119.66 192 120.32 192 121 C178.09991013 124.86457375 164.33261256 128.23653373 150 130 C149.30495361 130.0942627 148.60990723 130.18852539 147.89379883 130.28564453 C107.89137303 135.09816062 65.37723287 129.50894781 29 112 C28.30277832 111.67 27.60555664 111.34 26.88720703 111 C22.20168379 108.77097524 17.58203804 106.43432013 13 104 C12.39849121 103.68063477 11.79698242 103.36126953 11.17724609 103.03222656 C-1.33568316 96.30998205 -12.72036999 88.17673626 -23.57421875 79.02734375 C-25.10493163 77.74805231 -26.66733731 76.50495288 -28.26953125 75.31640625 C-30.25 73.8125 -30.25 73.8125 -33 71 C-32.72037903 66.81073668 -31.47569085 63.35250026 -29.77734375 59.54296875 C-29.32568848 58.52187012 -28.8740332 57.50077148 -28.40869141 56.44873047 C-27.92319824 55.37252441 -27.43770508 54.29631836 -26.9375 53.1875 C-26.43653809 52.06746582 -25.93557617 50.94743164 -25.41943359 49.79345703 C-24.41184861 47.54760398 -23.40052115 45.30342581 -22.38525391 43.06103516 C-21.22958365 40.50731755 -20.08714611 37.94835962 -18.94921875 35.38671875 C-13.43445609 23.15890242 -6.71675033 11.59900361 0 0 Z " fill="#81C450" transform="translate(150,363)"/>
<path d="M0 0 C8.91773911 5.77366443 15.35815128 13.77022106 18.3125 24.12890625 C20.1918885 34.5830048 18.75777935 44.55802241 13.46484375 53.80859375 C7.41491312 62.45375925 -0.15574971 68.47669292 -10.25 71.5625 C-10.87132812 71.75328125 -11.49265625 71.9440625 -12.1328125 72.140625 C-22.58805908 74.22395827 -32.66710269 72.64114905 -41.68359375 67.0546875 C-50.49381684 60.66616148 -57.01110989 52.34382203 -59.25 41.5625 C-60.39468134 28.43768787 -58.70768941 18.00477881 -50.25 7.5625 C-36.94443177 -7.08946501 -16.9774402 -10.18646412 0 0 Z " fill="#040202" transform="translate(384.25,39.4375)"/>
<path d="M0 0 C9.40806492 5.64197501 16.07654799 14.41421637 19 25 C20.75864309 36.88239297 19.13252565 47.90741534 12.015625 57.7421875 C5.70524454 65.28331593 -2.89055927 72.11026495 -13.00268555 73.21972656 C-26.02279752 73.91725873 -35.6955437 72.47150051 -45.96875 63.8984375 C-53.54084214 56.82144369 -58.14617354 47.77121506 -59.44921875 37.4375 C-59.81295174 25.99872445 -56.78030025 16.4615247 -49 8 C-35.29257946 -5.87805233 -17.58492368 -9.10441515 0 0 Z " fill="#040202" transform="translate(91,123)"/>
<path d="M0 0 C10.65509076 5.78419213 17.11439966 13.89078768 21.41015625 25.09375 C24.2203145 34.8332301 22.67711599 45.23585829 18.32421875 54.26171875 C11.81779655 64.71386728 3.08873598 71.23068982 -8.6640625 74.87890625 C-20.29722616 77.09259565 -30.89091573 74.12305857 -40.55078125 67.57421875 C-45.48910729 63.73014049 -48.77911531 59.78494352 -51.67578125 54.26171875 C-52.08699219 53.54886719 -52.49820313 52.83601563 -52.921875 52.1015625 C-56.99848636 43.87781018 -57.54194374 33.05709053 -55.11621094 24.22412109 C-51.28878765 13.70272184 -44.22388399 5.36048916 -34.30078125 0.26171875 C-23.95999422 -4.46549818 -10.49417102 -4.58015121 0 0 Z " fill="#040203" transform="translate(232.67578125,297.73828125)"/>
<path d="M0 0 C2.18940193 2.12234471 3.65671923 3.94498232 5.0078125 6.6875 C5.35457031 7.38617188 5.70132813 8.08484375 6.05859375 8.8046875 C6.41050781 9.52914062 6.76242188 10.25359375 7.125 11 C7.66447266 12.08667969 7.66447266 12.08667969 8.21484375 13.1953125 C11.59283421 20.05250661 13.58642738 26.38318954 11.421875 34.046875 C7.96774846 41.64595339 1.76698585 47.88593122 -3.71484375 54.06640625 C-14.33900905 66.13959641 -21.46035987 78.99859863 -27.14926147 94.00799561 C-28.60640812 97.84810522 -30.11049888 101.66975418 -31.61328125 105.4921875 C-31.90455399 106.23518097 -32.19582672 106.97817444 -32.4959259 107.74368286 C-40.9484684 129.16987783 -40.9484684 129.16987783 -47 138 C-47.66 138 -48.32 138 -49 138 C-58.04483804 117.60100358 -65.35458954 97.06118972 -69 75 C-69.22429687 73.74960937 -69.44859375 72.49921875 -69.6796875 71.2109375 C-71.12542709 62.43747673 -71.20710446 53.85946861 -71 45 C-68.74336813 47.11847073 -67.1228634 49.28909914 -65.4375 51.875 C-61.28651019 57.41646915 -56.0974309 60.33950115 -49.26171875 61.44140625 C-42.77277059 61.72592873 -36.46149951 60.64099967 -31 57 C-25.79671118 51.83955905 -22.25038505 46.34865844 -19.08203125 39.78515625 C-18.65750168 38.9299791 -18.23297211 38.07480194 -17.795578 37.19371033 C-16.45644393 34.48877578 -15.13446695 31.77585832 -13.8125 29.0625 C-12.91578888 27.2475152 -12.01801057 25.43305724 -11.11914062 23.61914062 C-7.26202528 15.80735669 -3.48661205 7.98545671 0 0 Z " fill="#81C450" transform="translate(117,230)"/>
<path d="M0 0 C1.41448576 0.13898695 2.82845242 0.28326188 4.2421875 0.4296875 C5.02964355 0.50944824 5.81709961 0.58920898 6.62841797 0.67138672 C12.9258791 1.54398119 17.72309196 3.79103878 22.08203125 8.44921875 C25.74201481 13.31677326 28.62932268 18.67808496 31.65625 23.953125 C39.43088749 37.4661854 49.57985579 43.62498219 64.4375 47.875 C73.47813342 50.57874084 80.81194858 54.83488783 87 62 C87 62.66 87 63.32 87 64 C77.07509741 67.16829251 67.73679521 67.51707091 57.4375 67.4375 C56.62963043 67.43512329 55.82176086 67.43274658 54.9894104 67.43029785 C40.05887815 67.36190784 25.65742755 65.98072776 11 63 C10.20916016 62.83983398 9.41832031 62.67966797 8.60351562 62.51464844 C-5.58528556 59.52318677 -19.67115138 54.6932268 -33 49 C-30.32929041 46.12129123 -27.42716198 44.39804551 -24.03515625 42.4765625 C-18.89567292 38.74772431 -16.39062075 33.18704488 -13.671875 27.63671875 C-13.27800598 26.84473587 -12.88413696 26.05275299 -12.47833252 25.23677063 C-11.22986039 22.72312321 -9.98982843 20.2054202 -8.75 17.6875 C-7.90159686 15.97563619 -7.05264431 14.26404455 -6.203125 12.55273438 C-4.1290437 8.37161333 -2.06251837 4.18683623 0 0 Z " fill="#8FDA59" transform="translate(255,420)"/>
<path d="M0 0 C0.99 0.495 0.99 0.495 2 1 C-9.4002507 23.38398831 -22.42972588 43.90928579 -40 62 C-40.8974292 62.93610107 -40.8974292 62.93610107 -41.81298828 63.89111328 C-50.61619029 73.04865801 -59.62179935 81.63381848 -70 89 C-70.33 89 -70.66 89 -71 89 C-74.34566903 72.9516689 -73.17683764 56.32241554 -64.6875 42.25 C-51.98756443 23.54840712 -33.90913704 15.01057825 -13.55834961 6.78881836 C-9.89555427 5.29633609 -6.45859298 3.74561905 -3.06640625 1.703125 C-2.05449219 1.14109375 -1.04257812 0.5790625 0 0 Z " fill="#8FD958" transform="translate(476,362)"/>
<path d="M0 0 C0.66 0.33 1.32 0.66 2 1 C1.43152344 1.42410156 0.86304688 1.84820312 0.27734375 2.28515625 C-2.18075283 4.15232477 -4.59676311 6.06277539 -7 8 C-7.61875 8.49371094 -8.2375 8.98742187 -8.875 9.49609375 C-13.04143715 13.20923797 -15.66594818 17.52488915 -18.3125 22.375 C-18.81922241 23.29345703 -18.81922241 23.29345703 -19.33618164 24.23046875 C-27.25821692 39.46900789 -25.734456 59.86998332 -20.72314453 75.84423828 C-11.70869698 102.71715248 1.66558199 128.55831417 14.42578125 153.8046875 C15.2602478 155.45694336 15.2602478 155.45694336 16.11157227 157.14257812 C17.18294799 159.25627423 18.26003197 161.36708915 19.34350586 163.47460938 C20.06292358 164.8909668 20.06292358 164.8909668 20.796875 166.3359375 C21.22323242 167.16657715 21.64958984 167.9972168 22.08886719 168.85302734 C23 171 23 171 23 174 C21.60596244 174.10933628 20.20936224 174.18619553 18.8125 174.25 C18.03519531 174.29640625 17.25789063 174.3428125 16.45703125 174.390625 C12.97208484 173.83657947 11.56907449 172.42117776 9 170 C7.36911985 167.53801212 6.095525 164.93783114 4.8125 162.28125 C4.24323036 161.13845078 4.24323036 161.13845078 3.66246033 159.9725647 C2.42915072 157.48765864 1.2140421 154.99436904 0 152.5 C-0.85153243 150.77037518 -1.7036697 149.04104802 -2.55639648 147.31201172 C-38.10626637 75.01118579 -38.10626637 75.01118579 -38.25 49.75 C-38.2809375 48.41388672 -38.2809375 48.41388672 -38.3125 47.05078125 C-38.38360639 34.80270585 -33.98219264 24.1292935 -26.10546875 14.7421875 C-19.09937615 7.91024251 -9.23779761 3.07926587 0 0 Z " fill="#DA3F4C" transform="translate(197,280)"/>
<path d="M0 0 C0.66 0.33 1.32 0.66 2 1 C1.0409375 1.928125 1.0409375 1.928125 0.0625 2.875 C-0.96150421 3.91354972 -1.9817428 4.95581495 -3 6 C-3.70125 6.70511719 -4.4025 7.41023438 -5.125 8.13671875 C-15.83688019 19.37333631 -20.95227803 32.29508086 -21.375 47.8125 C-20.36987998 87.23068494 4.91234005 127.58906615 22.54663086 162.01977539 C23.00561768 162.92074951 23.46460449 163.82172363 23.9375 164.75 C24.33839844 165.52859375 24.73929688 166.3071875 25.15234375 167.109375 C26 169 26 169 26 171 C26.66 171.33 27.32 171.66 28 172 C24.34711807 173.21762731 21.84245864 173.39075851 18 173 C11.58946567 168.95170366 9.12776908 163.1314212 5.9375 156.4375 C5.38094727 155.29724365 4.82439453 154.1569873 4.25097656 152.98217773 C-0.97142741 142.22141583 -6.00470063 131.3694353 -10.99609375 120.5 C-13.176455 115.75786919 -15.41575237 111.05005816 -17.69970703 106.35717773 C-28.23333632 84.6359005 -40.56657204 57.69962988 -33.7421875 33.06640625 C-28.61116189 18.78055075 -18.35070557 8.29435542 -4.76171875 1.76171875 C-3 1 -3 1 0 0 Z " fill="#DA3F4C" transform="translate(49,105)"/>
<path d="M0 0 C-1.051875 0.70962891 -1.051875 0.70962891 -2.125 1.43359375 C-15.24068971 10.57537204 -23.42091149 21.12186188 -27 37 C-29.99082292 71.49771021 -14.39027051 100.70769382 0.43164062 130.79833984 C2.93453999 135.90777668 5.37039376 141.04881235 7.8125 146.1875 C12.10015187 155.18041205 16.49820095 164.11249413 21 173 C13.3984375 174.1796875 13.3984375 174.1796875 9.8125 172.5625 C2.8618784 166.22971143 -0.59434285 156.91897533 -4.5625 148.5625 C-5.18036277 147.2689415 -5.79861457 145.97556875 -6.41723633 144.68237305 C-7.36258829 142.70562781 -8.30741851 140.72864551 -9.25022888 138.75068665 C-11.21004508 134.64060128 -13.19323265 130.54285442 -15.1953125 126.453125 C-41.08930264 73.43269439 -41.08930264 73.43269439 -41.3125 49.3125 C-41.34150391 48.28705078 -41.37050781 47.26160156 -41.40039062 46.20507812 C-41.50934422 32.93788255 -36.27396917 22.49401025 -27.375 12.875 C-22.17828461 7.89688449 -7.65500276 -3.82750138 0 0 Z " fill="#DA3F4C" transform="translate(348,20)"/>
<path d="M0 0 C4.5996291 2.58455349 7.72330373 5.60370809 10.6875 9.9375 C11.30625 10.80375 11.925 11.67 12.5625 12.5625 C14.76668201 19.17504602 14.72703445 26.82049383 12.4375 33.4375 C9.07666427 40.15917147 4.98414687 44.27157555 -2.11328125 47.0234375 C-9.08267097 49.01469171 -16.70134914 49.24922011 -23.25 45.875 C-29.66658677 41.67184133 -33.75047968 36.67863859 -35.8359375 29.25390625 C-37.32371174 22.02234787 -36.51479134 16.81270715 -32.9296875 10.30078125 C-25.31859056 -0.82171548 -12.58006348 -5.74060126 0 0 Z " fill="#E3EEF7" transform="translate(82.3125,134.0625)"/>
<path d="M0 0 C6.32779218 3.63796521 10.31480703 8.87246494 13.0625 15.5625 C14.5036854 24.52987581 13.5611964 30.26056736 8.625 38.0625 C4.34492054 43.56545931 -2.01614776 47.27858239 -8.89453125 48.515625 C-16.31095711 48.8426485 -23.13365873 46.96778247 -28.7109375 41.96875 C-35.20527356 34.93517304 -36.81069822 29.82093437 -36.6171875 20.28515625 C-36.07347154 13.05022612 -33.68098364 8.48641341 -28.30859375 3.60546875 C-19.96938309 -3.04905289 -9.94672366 -4.36685429 0 0 Z " fill="#E3EEF7" transform="translate(375.375,49.9375)"/>
<path d="M0 0 C5.96079431 3.1413497 9.65696819 8.096994 13 13.8125 C15.01510629 20.8061042 15.08395705 27.04359027 12.0625 33.75 C8.73843203 39.69733529 3.54153013 45.06470021 -2.9375 47.5 C-10.97399421 48.33439011 -19.16539592 48.80531117 -26.10546875 44.12109375 C-31.6962796 39.174001 -35.51241843 33.51596258 -36.15234375 25.96484375 C-36.43067605 17.87094058 -35.17384162 11.00833979 -29.48828125 4.88671875 C-21.17288185 -2.54896585 -10.48562766 -3.99708542 0 0 Z " fill="#E4EFF7" transform="translate(226.9375,310.5)"/>
<path d="M0 0 C2.14692683 2.14692683 2.78059517 3.59594848 3.890625 6.390625 C4.2628418 7.31198242 4.63505859 8.23333984 5.01855469 9.18261719 C5.42493164 10.19485352 5.83130859 11.20708984 6.25 12.25 C10.18692895 21.86030915 14.35313162 31.34323686 18.75 40.75 C19.18514923 41.68214325 19.18514923 41.68214325 19.62908936 42.63311768 C22.98604755 49.80521193 26.43604432 56.92454471 30.0078125 63.9921875 C30.49677002 64.96097839 30.49677002 64.96097839 30.99560547 65.94934082 C32.56130298 69.04600796 34.13811155 72.1362446 35.73339844 75.21777344 C36.57306152 76.86181152 36.57306152 76.86181152 37.4296875 78.5390625 C37.92710449 79.50021973 38.42452148 80.46137695 38.93701172 81.45166016 C40 84 40 84 40 88 C35.67832709 86.50837782 32.1707501 84.2275581 28.5 81.5625 C27.88906494 81.12147949 27.27812988 80.68045898 26.64868164 80.22607422 C13.43649582 70.55994986 -0.05893162 59.45749272 -10.49609375 46.796875 C-11.99570306 44.95332236 -11.99570306 44.95332236 -13.78515625 43.203125 C-14.35105469 42.62046875 -14.91695312 42.0378125 -15.5 41.4375 C-16.0053125 40.94121094 -16.510625 40.44492187 -17.03125 39.93359375 C-18.59203041 36.8183264 -17.67717904 34.35185313 -17 31 C-15.54125977 27.68261719 -15.54125977 27.68261719 -13.69140625 24.296875 C-13.36462387 23.6924054 -13.03784149 23.08793579 -12.70115662 22.46514893 C-11.66490468 20.55446913 -10.61388277 18.6523872 -9.5625 16.75 C-8.86037347 15.45885202 -8.1591927 14.16718926 -7.45898438 12.875 C-2.47063166 3.7059475 -2.47063166 3.7059475 0 0 Z " fill="#8FD958" transform="translate(150,363)"/>
<path d="M0 0 C2.11876033 2.67414151 3.70098511 5.24073995 5.09375 8.3515625 C5.47926025 9.19485107 5.86477051 10.03813965 6.26196289 10.90698242 C6.67051514 11.80392822 7.07906738 12.70087402 7.5 13.625 C12.01459524 23.35272627 17.24207478 32.4381805 23.03540039 41.45385742 C24 43 24 43 25 45 C24.38256836 46.7331543 24.38256836 46.7331543 23.33984375 48.82421875 C22.77124634 49.98667114 22.77124634 49.98667114 22.19116211 51.17260742 C21.77745361 52.00252197 21.36374512 52.83243652 20.9375 53.6875 C16.88797052 61.9949382 13.29150627 70.36463648 10 79 C7 79 7 79 4.72265625 76.75390625 C3.82467243 75.69959602 2.93879901 74.63490153 2.0625 73.5625 C1.5873999 72.99063965 1.1122998 72.4187793 0.62280273 71.82958984 C-5.3314851 64.54080392 -10.8244681 56.85892196 -16 49 C-16.41910645 48.36545898 -16.83821289 47.73091797 -17.27001953 47.07714844 C-20.08024296 42.55431347 -20.08024296 42.55431347 -19.7109375 40.00317383 C-18.54553089 36.71946462 -16.69552379 33.80583287 -14.9375 30.8125 C-9.24324856 20.91970097 -4.11768415 10.65631828 0 0 Z " fill="#3689C9" transform="translate(97,342)"/>
<path d="M0 0 C2.18940193 2.12234471 3.65671923 3.94498232 5.0078125 6.6875 C5.35457031 7.38617188 5.70132813 8.08484375 6.05859375 8.8046875 C6.41050781 9.52914062 6.76242188 10.25359375 7.125 11 C7.66447266 12.08667969 7.66447266 12.08667969 8.21484375 13.1953125 C11.59283421 20.05250661 13.58642738 26.38318954 11.421875 34.046875 C7.96774846 41.64595339 1.76698585 47.88593122 -3.71484375 54.06640625 C-13.25943181 64.91718419 -20.46390767 76.61879191 -26 90 C-28.28458167 87.71541833 -28.52616266 86.58395638 -29.25390625 83.4921875 C-29.57584961 82.13480469 -29.57584961 82.13480469 -29.90429688 80.75 C-30.12150391 79.80125 -30.33871094 78.8525 -30.5625 77.875 C-30.78357422 76.94945312 -31.00464844 76.02390625 -31.23242188 75.0703125 C-31.66012325 73.24062926 -32.06500572 71.40544718 -32.44580078 69.56542969 C-32.94855296 67.04408095 -32.94855296 67.04408095 -33.69091797 64.81738281 C-34.21484375 62.8203125 -34.21484375 62.8203125 -34 59 C-32.43310547 57.46606445 -32.43310547 57.46606445 -30.23828125 55.80859375 C-22.12281825 49.36872315 -18.56104975 39.19538726 -14.1875 30.0625 C-13.25248206 28.15079607 -12.31564646 26.23998003 -11.37695312 24.33007812 C-7.43769823 16.28188527 -3.59214516 8.20983546 0 0 Z " fill="#8ED758" transform="translate(117,230)"/>
<path d="M0 0 C2 1 2 1 2.8515625 3.28515625 C3.10679687 4.20167969 3.36203125 5.11820312 3.625 6.0625 C4.01558594 7.44115234 4.01558594 7.44115234 4.4140625 8.84765625 C4.60742188 9.55792969 4.80078125 10.26820312 5 11 C4.5153125 11.37769531 4.030625 11.75539063 3.53125 12.14453125 C-2.42529891 17.0357743 -6.68081152 22.64757652 -11 29 C-12.051875 27.9171875 -12.051875 27.9171875 -13.125 26.8125 C-15.92770745 24.00176187 -18.92262792 21.50483774 -22 19 C-17.69404362 13.61415866 -13.20614077 9.5843528 -7.625 5.5625 C-6.88894531 5.02173828 -6.15289062 4.48097656 -5.39453125 3.92382812 C-3.60168497 2.60829806 -1.80365684 1.30064625 0 0 Z " fill="#3588C6" transform="translate(140,84)"/>
<path d="M0 0 C0.66 0.33 1.32 0.66 2 1 C0.71034824 2.37562854 -0.62689293 3.70766393 -2 5 C-2.66 5 -3.32 5 -4 5 C-7.86946384 13.86752129 -9.14634362 24.98734716 -5.83984375 34.25 C-4.49989962 36.90883508 -4.49989962 36.90883508 -2.99609375 39.21484375 C-2.66738281 39.80394531 -2.33867188 40.39304688 -2 41 C-2.33 41.66 -2.66 42.32 -3 43 C-9.39651886 36.56843172 -12.87167834 30.71344107 -13.5 21.5625 C-13.22723233 15.05017198 -10.37648308 9.45994551 -5.88671875 4.8125 C-3.97365536 3.12710135 -2.03972056 1.52852509 0 0 Z " fill="#C5CED6" transform="translate(59,135)"/>
<path d="M0 0 C0.66 0.33 1.32 0.66 2 1 C1.52949219 1.4125 1.05898438 1.825 0.57421875 2.25 C-5.09093053 7.50463122 -7.63403574 11.59296555 -8.27734375 19.33984375 C-8.4638787 26.33117382 -7.98740985 31.68047917 -5 38 C-4.608125 38.99 -4.21625 39.98 -3.8125 41 C-3.544375 41.66 -3.27625 42.32 -3 43 C-7.95618253 39.39550361 -11.29665439 36.00501502 -13 30 C-13.79491178 22.85472553 -13.94318218 15.26512569 -10 9 C-7.00779829 5.43482349 -3.87115005 2.5807667 0 0 Z " fill="#C8D2D9" transform="translate(352,50)"/>
<path d="M0 0 C0.8441363 2.37844693 1.17903098 3.55377202 0.22265625 5.9375 C-0.16019531 6.618125 -0.54304687 7.29875 -0.9375 8 C-4.28998726 15.07747311 -4.01770967 22.56304611 -1.625 29.9375 C-1.10259697 31.29921407 -0.56290381 32.6545226 0 34 C0.391875 35.010625 0.78375 36.02125 1.1875 37.0625 C1.455625 37.701875 1.72375 38.34125 2 39 C-1.35066172 37.614012 -2.83371851 36.2243823 -4.6875 33.125 C-5.10386719 32.44695312 -5.52023438 31.76890625 -5.94921875 31.0703125 C-8.91362994 25.22965104 -8.87399981 18.02590464 -7.50390625 11.71484375 C-5.88584098 6.97034727 -3.38695768 3.66157587 0 0 Z " fill="#C7D0D8" transform="translate(199,314)"/>
<path d="M0 0 C0.66 0.33 1.32 0.66 2 1 C1.10539062 1.68964844 0.21078125 2.37929687 -0.7109375 3.08984375 C-8.07469207 8.80098969 -15.18241329 14.63796632 -22 21 C-23.9451 18.08235 -24.45276317 16.37462715 -25 13 C-21.77347309 11.20354874 -18.5433318 9.41369581 -15.3125 7.625 C-14.40048828 7.11710937 -13.48847656 6.60921875 -12.54882812 6.0859375 C-11.66259766 5.59609375 -10.77636719 5.10625 -9.86328125 4.6015625 C-9.05157471 4.15119629 -8.23986816 3.70083008 -7.40356445 3.23681641 C-4.96528977 1.98213895 -2.60246016 0.86885543 0 0 Z " fill="#7DBE4D" transform="translate(178,62)"/>
<path d="M0 0 C0.66 0.33 1.32 0.66 2 1 C-1.465 3.97 -1.465 3.97 -5 7 C-5 6.01 -5 5.02 -5 4 C-2.5 1.8125 -2.5 1.8125 0 0 Z " fill="#CFD9E1" transform="translate(352,50)"/>
<path d="M0 0 C0.66 0.33 1.32 0.66 2 1 C0.71034824 2.37562854 -0.62689293 3.70766393 -2 5 C-2.66 5 -3.32 5 -4 5 C-4.33 5.66 -4.66 6.32 -5 7 C-5 6.01 -5 5.02 -5 4 C-2.5 1.8125 -2.5 1.8125 0 0 Z " fill="#D0DAE2" transform="translate(59,135)"/>
</svg>
